<?xml version="1.0" standalone="no"?>
<!DOCTYPE svg PUBLIC "-//W3C//DTD SVG 20010904//EN"
 "http://www.w3.org/TR/2001/REC-SVG-20010904/DTD/svg10.dtd">
<svg version="1.0" xmlns="http://www.w3.org/2000/svg"
 width="512.000000pt" height="512.000000pt" viewBox="0 0 512.000000 512.000000"
 preserveAspectRatio="xMidYMid meet">
<metadata>
Created by potrace 1.14, written by Peter Selinger 2001-2017
</metadata>
<g transform="translate(0.000000,512.000000) scale(0.100000,-0.100000)"
fill="#000000" stroke="none">
<path d="M2270 4065 l0 -155 53 -1 c28 -1 97 -5 152 -9 71 -6 45 -7 -92 -3
l-193 5 0 -197 0 -196 23 7 c114 37 143 39 424 32 274 -7 682 -22 901 -34
l112 -6 0 164 0 165 -67 6 c-38 4 -111 7 -163 7 -52 0 -101 4 -108 9 -8 4 19
7 62 5 42 -2 110 -6 151 -7 l75 -4 0 138 c0 75 2 144 5 151 5 12 -36 16 -227
26 -369 19 -774 34 -794 30 -11 -2 65 -8 169 -12 l187 -8 0 -42 c0 -24 -2 -45
-5 -48 -3 -3 -28 -1 -56 5 -46 9 -51 8 -65 -11 -11 -16 -22 -20 -52 -17 -20 3
-56 7 -79 9 -25 3 -45 0 -49 -6 -5 -7 -11 -5 -20 6 -7 10 -18 15 -24 11 -9 -6
-9 -9 0 -15 29 -18 -5 -27 -89 -25 -87 3 -89 3 -95 -21 -5 -19 -13 -24 -36
-24 -17 0 -30 4 -30 8 0 5 -13 7 -30 4 l-30 -4 0 100 c0 87 2 101 18 105 13 4
11 5 -5 6 -23 1 -23 0 -23 -154z m1145 86 c16 -1 17 -3 6 -10 -8 -5 -19 -7
-25 -5 -6 2 -17 -5 -24 -16 -7 -11 -9 -20 -5 -19 19 3 33 -2 33 -11 0 -5 -11
-9 -25 -8 -14 1 -25 6 -25 11 0 4 -9 3 -20 -3 -18 -10 -20 -8 -20 30 l0 41 43
-5 c23 -2 51 -5 62 -5z m82 -7 c-3 -3 -12 -4 -19 -1 -8 3 -5 6 6 6 11 1 17 -2
13 -5z m48 -4 c3 -6 -1 -7 -9 -4 -18 7 -21 14 -7 14 6 0 13 -4 16 -10z m-88
-57 c-11 -10 -27 8 -27 30 l0 21 16 -22 c9 -13 14 -26 11 -29z m-562 -13 c3
-5 1 -10 -4 -10 -6 0 -11 5 -11 10 0 6 2 10 4 10 3 0 8 -4 11 -10z m-318 -392
c-1 -40 -3 -10 -3 67 0 77 1 110 3 73 2 -37 2 -100 0 -140z m710 5 c-2 -32 -3
-6 -3 57 0 63 1 89 3 58 2 -32 2 -84 0 -115z"/>
<path d="M3330 4141 c0 -12 28 -22 35 -12 3 5 -2 12 -11 15 -21 8 -24 8 -24
-3z"/>
<path d="M2388 4203 c29 -2 74 -2 100 0 26 2 2 3 -53 3 -55 0 -76 -1 -47 -3z"/>
<path d="M2772 4091 c-11 -7 -11 -9 1 -14 16 -6 27 0 27 15 0 10 -11 10 -28
-1z"/>
<path d="M2510 4080 c0 -5 5 -10 11 -10 5 0 7 5 4 10 -3 6 -8 10 -11 10 -2 0
-4 -4 -4 -10z"/>
<path d="M2385 4030 c-3 -5 -1 -10 4 -10 6 0 11 5 11 10 0 6 -2 10 -4 10 -3 0
-8 -4 -11 -10z"/>
<path d="M2422 3022 c-1 -59 -5 -128 -8 -153 -5 -40 -8 -46 -25 -42 -10 3 -19
12 -19 20 0 8 -4 11 -10 8 -5 -3 -10 -35 -10 -71 l0 -65 -32 5 c-18 3 -58 7
-88 8 l-55 3 -10 -355 c-9 -325 -11 -345 -18 -240 -13 174 -23 278 -25 249 -3
-36 -11 -40 -34 -17 -11 11 -26 17 -34 14 -12 -5 -14 22 -14 164 0 174 -3 188
-42 182 -10 -2 -18 5 -21 20 -4 22 -4 22 -6 2 -1 -28 -22 -33 -159 -41 l-113
-6 5 -358 6 -358 -23 8 c-23 8 -26 38 -36 334 -1 26 -6 37 -16 37 -13 0 -15
23 -17 143 0 78 0 152 1 163 1 22 -25 52 -36 40 -3 -3 -1 -6 5 -6 7 0 12 -9
12 -21 0 -24 8 -26 -165 37 -66 24 -123 40 -126 36 -3 -4 -25 -63 -49 -132
-46 -133 -53 -149 -65 -129 -5 8 -4 10 4 5 8 -5 11 1 9 21 -1 15 4 45 11 66 7
21 11 40 9 42 -2 3 -39 -93 -82 -213 -43 -119 -85 -230 -92 -247 -8 -16 -27
-66 -43 -110 -32 -85 -40 -91 -16 -11 13 43 13 47 0 36 -8 -7 -15 -19 -15 -28
0 -8 -3 -13 -6 -9 -9 9 26 107 39 107 7 0 4 7 -6 15 -13 9 -17 21 -12 37 5 20
4 20 -5 6 -6 -10 -10 -24 -8 -30 3 -16 -42 -151 -48 -145 -3 2 0 16 6 31 11
31 5 50 -16 42 -10 -4 -11 0 -5 17 23 62 22 77 -3 87 l-24 9 39 123 c43 136
45 144 24 108 -13 -22 -21 -16 -16 13 3 19 -17 -5 -30 -34 -11 -28 -14 -30
-20 -13 -6 16 -10 11 -27 -26 -29 -64 -27 -47 8 55 16 49 30 95 30 102 0 32
-19 -2 -50 -87 -31 -87 -49 -119 -35 -63 4 16 4 25 1 22 -8 -8 -256 -692 -255
-704 1 -5 58 -64 128 -129 l126 -119 155 -48 c85 -27 162 -49 171 -49 11 0 23
23 39 75 13 41 26 73 28 70 3 -2 8 -109 12 -237 l8 -233 192 -185 192 -185
-16 -206 c-9 -113 -16 -224 -16 -246 l0 -39 81 -27 c44 -15 85 -24 92 -20 7 5
30 13 52 18 l40 10 6 70 c10 112 31 310 33 312 1 1 141 16 311 33 171 17 329
33 353 36 42 6 42 6 42 -25 0 -38 59 -571 65 -588 2 -7 17 -10 37 -8 18 3 68
7 112 11 l78 6 -6 81 c-4 45 -9 105 -12 132 -3 37 -2 44 5 29 5 -12 14 -25 20
-29 15 -9 13 48 -8 250 -10 94 -17 171 -17 171 1 1 192 21 426 43 234 23 430
44 435 45 7 2 6 197 -1 582 -6 319 -10 580 -9 582 3 3 542 -113 570 -122 6 -2
61 44 123 103 l113 106 -306 415 -305 415 -2 135 c0 74 -3 120 -5 102 -4 -27
-8 -33 -26 -30 -17 2 -23 11 -25 36 l-3 32 -82 0 c-45 0 -345 7 -667 15 -322
8 -605 15 -630 15 l-45 0 -3 -108z m-424 -319 c-15 -2 -42 -2 -60 0 -18 2 -6
4 27 4 33 0 48 -2 33 -4z m-30 -50 c-32 -2 -86 -2 -120 0 -35 2 -9 3 57 3 66
0 94 -1 63 -3z m-211 -90 c-2 -16 -4 -3 -4 27 0 30 2 43 4 28 2 -16 2 -40 0
-55z m-922 -302 c-6 -5 -25 10 -25 20 0 5 6 4 14 -3 8 -7 12 -15 11 -17z m40
-389 c-3 -3 -11 0 -18 7 -9 10 -8 11 6 5 10 -3 15 -9 12 -12z m965 -1626 c0
-14 -4 -28 -10 -31 -6 -4 -10 7 -10 24 0 17 5 31 10 31 6 0 10 -11 10 -24z"/>
<path d="M2003 2804 c-16 -16 -17 -41 -2 -50 17 -10 26 8 20 37 -5 22 -8 25
-18 13z"/>
<path d="M970 2593 c-7 -21 -19 -44 -28 -50 -9 -7 -11 -13 -5 -13 6 0 15 6 20
13 13 16 34 79 29 84 -2 3 -9 -13 -16 -34z"/>
<path d="M1634 2490 c0 -63 1 -89 3 -57 2 31 2 83 0 115 -2 31 -3 5 -3 -58z"/>
<path d="M2902 195 c0 -16 2 -22 5 -12 2 9 2 23 0 30 -3 6 -5 -1 -5 -18z"/>
<path d="M1785 140 c-25 -5 -27 -7 -12 -13 26 -10 57 -9 57 2 0 15 -12 18 -45
11z"/>
</g>
</svg>
