<svg xmlns="http://www.w3.org/2000/svg" style="display: none;">
    <symbol xmlns="http://www.w3.org/2000/svg" id="cf" viewBox="0 0 20 20">
    <path d="M15.2716 7.62315C15.2716 7.62315 19.3551 6.97646 20 5.09035H13.7445V3.59375H0L1.69316 5.56691V7.58858C1.69316 7.58858 5.96542 7.36547 7.61799 8.62404C9.88011 10.7298 5.07377 13.5762 5.07377 13.5762L4.24959 16.3152C5.53839 15.0828 7.99472 13.4884 12.4983 13.5653C10.7845 14.1093 9.06117 14.9589 7.71958 16.3152H16.8236L15.9663 13.5762C15.9663 13.5762 9.36793 9.6687 15.2716 7.6234V7.62315Z"/>
    </symbol>

    <symbol xmlns="http://www.w3.org/2000/svg" id="modrinth" viewBox="0 0 512 512">
    <path d="M503.16 323.56c11.39-42.09 12.16-87.65.04-132.8C466.57 54.23 326.04-26.8 189.33 9.78 83.81 38.02 11.39 128.07.69 230.47h43.3c10.3-83.14 69.75-155.74 155.76-178.76 106.3-28.45 215.38 28.96 253.42 129.67l-42.14 11.27c-19.39-46.85-58.46-81.2-104.73-95.83l-7.74 43.84c36.53 13.47 66.16 43.84 77 84.25 15.8 58.89-13.62 119.23-67 144.26l11.53 42.99c70.16-28.95 112.31-101.86 102.34-177.02l41.98-11.23a210.18 210.18 0 0 1-3.86 84.16l42.61 15.49Z" clip-rule="evenodd"></path>
    <path d="M321.99 504.22C185.27 540.8 44.75 459.77 8.11 323.24A257.556 257.556 0 0 1 0 275.46h43.27c1.09 11.91 3.2 23.89 6.41 35.83 3.36 12.51 7.77 24.46 13.11 35.78l38.59-23.15c-3.25-7.5-5.99-15.32-8.17-23.45-24.04-89.6 29.2-181.7 118.92-205.71 17-4.55 34.1-6.32 50.8-5.61L255.19 133c-10.46.05-21.08 1.42-31.66 4.25-66.22 17.73-105.52 85.7-87.78 151.84 1.1 4.07 2.38 8.04 3.84 11.9l49.35-29.61-14.87-39.43 46.6-47.87 58.9-12.69 17.05 20.99-27.15 27.5-23.68 7.45-16.92 17.39 8.29 23.07s16.79 17.84 16.82 17.85l23.72-6.31 16.88-18.54 36.86-11.67 10.98 24.7-38.03 46.63-63.73 20.18-28.58-31.82-49.82 29.89c25.54 29.08 63.94 45.23 103.75 41.86l11.53 42.99c-59.41 7.86-117.44-16.73-153.49-61.91l-38.41 23.04c50.61 66.49 138.2 99.43 223.97 76.48 61.74-16.52 109.79-58.6 135.81-111.78l42.64 15.5c-30.89 66.28-89.84 118.94-166.07 139.34Z"></path>
    </symbol>

    <symbol xmlns="http://www.w3.org/2000/svg" id="discord" viewBox="0 0 24 24">
    <path d="M19.6239 5.40921C18.2217 4.75695 16.7181 4.27639 15.1459 4.00115C15.1173 3.99584 15.0887 4.00912 15.0739 4.03567C14.8805 4.38436 14.6663 4.83925 14.5163 5.19679C12.8254 4.94015 11.1431 4.94015 9.48679 5.19679C9.33676 4.8313 9.11478 4.38436 8.92053 4.03567C8.90578 4.01 8.87718 3.99673 8.84855 4.00115C7.27725 4.27551 5.7736 4.75607 4.37052 5.40921C4.35838 5.41452 4.34797 5.42337 4.34106 5.43487C1.48894 9.75461 0.707629 13.9682 1.09092 18.1295C1.09265 18.1498 1.10392 18.1693 1.11953 18.1817C3.00127 19.5827 4.82406 20.4332 6.61301 20.9969C6.64164 21.0058 6.67197 20.9951 6.69019 20.9712C7.11337 20.3854 7.49059 19.7676 7.81402 19.118C7.83311 19.08 7.81489 19.0348 7.77588 19.0198C7.17754 18.7897 6.6078 18.5091 6.05975 18.1906C6.0164 18.1649 6.01293 18.102 6.05281 18.0719C6.16814 17.9843 6.2835 17.8932 6.39363 17.8011C6.41355 17.7843 6.44131 17.7808 6.46474 17.7914C10.0652 19.4579 13.9631 19.4579 17.521 17.7914C17.5445 17.7799 17.5722 17.7834 17.593 17.8002C17.7032 17.8923 17.8185 17.9843 17.9347 18.0719C17.9746 18.102 17.972 18.1649 17.9286 18.1906C17.3806 18.5153 16.8108 18.7897 16.2116 19.0189C16.1726 19.034 16.1553 19.08 16.1744 19.118C16.5047 19.7667 16.882 20.3845 17.2973 20.9704C17.3147 20.9951 17.3459 21.0058 17.3745 20.9969C19.1721 20.4332 20.9949 19.5827 22.8766 18.1817C22.8931 18.1693 22.9035 18.1507 22.9053 18.1304C23.364 13.3194 22.1369 9.14042 19.6525 5.43575C19.6465 5.42337 19.6361 5.41452 19.6239 5.40921ZM8.35169 15.5957C7.26771 15.5957 6.37454 14.5868 6.37454 13.3478C6.37454 12.1087 7.25039 11.0998 8.35169 11.0998C9.46163 11.0998 10.3462 12.1176 10.3288 13.3478C10.3288 14.5868 9.45296 15.5957 8.35169 15.5957ZM15.6619 15.5957C14.5779 15.5957 13.6847 14.5868 13.6847 13.3478C13.6847 12.1087 14.5606 11.0998 15.6619 11.0998C16.7718 11.0998 17.6563 12.1176 17.639 13.3478C17.639 14.5868 16.7718 15.5957 15.6619 15.5957Z"/>
    </symbol>
</svg>